<svg xmlns="http://www.w3.org/2000/svg" version="1.1" xmlns:xlink="http://www.w3.org/1999/xlink" xmlns:svgjs="http://svgjs.dev/svgjs" width="2000" height="1500" viewBox="0 0 2000 1500"><rect width="2000" height="1500" fill="#471aa0"></rect><g transform="matrix(0.75,0,0,0.75,249.09092490043804,509.4687815741763)"><svg viewBox="0 0 396 127" data-background-color="#471aa0" preserveAspectRatio="xMidYMid meet" height="641" width="2000" xmlns="http://www.w3.org/2000/svg" xmlns:xlink="http://www.w3.org/1999/xlink"><g id="tight-bounds" transform="matrix(1,0,0,1,0.239996081444815,0.04126831009799048)"><svg viewBox="0 0 395.52 126.91746337980403" height="126.91746337980403" width="395.52"><g><svg viewBox="0 0 626.3875583622048 200.99999999999997" height="126.91746337980403" width="395.52"><g><rect width="5.443999307086615" height="200.99999999999997" x="214.25130708661416" y="0" fill="#ffffff" opacity="1" stroke-width="0" stroke="transparent" fill-opacity="1" class="rect-o-0" data-fill-palette-color="primary" rx="1%" id="o-0" data-palette-color="#ffffff"></rect></g><g transform="matrix(1,0,0,1,233.94661348031494,0.4999999999999858)"><svg viewBox="0 0 392.4409448818898 200" height="200" width="392.4409448818898"><g id="textblocktransform"><svg viewBox="0 0 392.4409448818898 200" height="200" width="392.4409448818898" id="textblock"><g><svg viewBox="0 0 392.4409448818898 200" height="200" width="392.4409448818898"><g transform="matrix(1,0,0,1,0,0)"><svg width="392.4409448818898" viewBox="0.5 -28.75 186.89999389648438 92.25000762939453" height="200" data-palette-color="#ffffff"><svg></svg><svg></svg><svg></svg><g class="wordmark-text-0" data-fill-palette-color="primary" id="text-0"><path xmlns="http://www.w3.org/2000/svg" d="M35.95-28.75v5.65h-14.4v23.1h-6.9v-23.1h-13.15v-5.65zM42.45-28.75v0h16v5.9h-9.7v5.65h9.7v5.7h-9.7v5.85h9.5v5.65h-15.8zM60.9-5.65v0 5.65h16v-5.65zM76.9-22.85v0-5.9h-16.2v5.9zM68.8-11.5v0-5.7h-8.1v5.7zM82.4-3.4v-21.9l5.85-3.45h10.35v5.65h-9.7v17.25h9.5v5.85h-10.15zM117.05-9.3h-6.5v3.45h-9.5v5.85h10.15l5.85-3.4zM110.55-19.6h6.5v-5.7l-5.85-3.45h-10.35v5.65h9.7zM126.05-28.75v0h6.3v11.55h9.7v5.7h-9.7v11.5h-6.3zM160.5-28.75v0h-6.3v11.55h-9.7v5.7h9.7v11.5h6.3z" fill="#ffffff" fill-rule="nonzero" stroke="none" stroke-width="1" stroke-linecap="butt" stroke-linejoin="miter" stroke-miterlimit="10" stroke-dasharray="" stroke-dashoffset="0" font-family="none" font-weight="none" font-size="none" text-anchor="none" style="mix-blend-mode: normal" data-fill-palette-color="primary" opacity="1"></path><path xmlns="http://www.w3.org/2000/svg" d="M6.2 3v0l10.3 17.25v11.5l-16-26.9zM29.3 3v0l-10.35 17.25v11.5l16-26.9zM39.45 3v0h6.3v28.75h-6.3zM53.25 17v-10.55l5.7-3.45h10.3v5.9h-9.9v5.65h9.9v5.85h-10.3zM87.7 28.35v-10.35l-5.9-3.45h-10.3v5.85h9.9v5.7h-9.7v5.65h10.1zM53.25 22.65h6.3v3.45h9.7v5.65h-10.15l-5.85-3.4zM81.4 12.3h6.3v-5.85l-5.9-3.45h-10.3v5.9h9.9zM95.2 3v0h6.3v28.75h-6.3zM109.5 6.45v0l5.85-3.45h10.35v5.65h-9.9v17.25h9.7v5.85h-10.15l-5.85-3.4zM143.95 6.45v0l-5.65-3.45h-10.35v5.65h9.7v17.25h-9.7v5.85h10.35l5.65-3.4zM152.95 31.75v-28.75h5.7l10.3 9.7v7.55l-9.7-9.35v20.85zM171.2 14.55l9.9 9.1v-20.65h6.3v28.75h-5.9l-10.3-9.9z" fill="#ffffff" fill-rule="nonzero" stroke="none" stroke-width="1" stroke-linecap="butt" stroke-linejoin="miter" stroke-miterlimit="10" stroke-dasharray="" stroke-dashoffset="0" font-family="none" font-weight="none" font-size="none" text-anchor="none" style="mix-blend-mode: normal" data-fill-palette-color="primary" opacity="1"></path><path xmlns="http://www.w3.org/2000/svg" d="M12.55 63.5h-5.7l-5.85-26.9 5.85-1.85 4.5 21.85 5.85-6.85v8.5zM29.8 63.5v0h-5.7l-4.65-5.25v-8.5l5.65 6.85 4.7-21.85 5.65 1.85zM41.45 34.75v0h16v5.9h-9.7v5.65h9.7v5.7h-9.7v5.85h9.5v5.65h-15.8zM59.9 57.85v0 5.65h16v-5.65zM75.9 40.65v0-5.9h-16.2v5.9zM67.8 52v0-5.7h-8.1v5.7zM82.4 63.5v-28.75h16v5.65h-9.7v5.9h9.7v5.7h-9.7v5.65h9.7v5.85zM111.2 63.5l5.65-3.4v-8.75l-4.7-2.2 4.7-2.25v-8.7l-5.65-3.45h-10.35v5.65h9.7v5.9h-9.7v5.7h9.7v5.65h-9.7v5.85z" fill="#ffffff" fill-rule="nonzero" stroke="none" stroke-width="1" stroke-linecap="butt" stroke-linejoin="miter" stroke-miterlimit="10" stroke-dasharray="" stroke-dashoffset="0" font-family="none" font-weight="none" font-size="none" text-anchor="none" style="mix-blend-mode: normal" data-fill-palette-color="primary" opacity="1"></path></g></svg></g></svg></g></svg></g></svg></g><g transform="matrix(1,0,0,1,0,0.4999999999999858)"><svg viewBox="0 0 200 200" height="200" width="200"><g><svg xmlns="http://www.w3.org/2000/svg" xmlns:xlink="http://www.w3.org/1999/xlink" version="1.1" x="0" y="0" viewBox="0.40000009536743164 0.40000009536743164 47.20000076293945 47.20000076293945" enable-background="new 0 0 48 48" xml:space="preserve" height="200" width="200" class="icon-icon-0" data-fill-palette-color="accent" id="icon-0"><g fill="#ffffff" data-fill-palette-color="accent"><path d="M45.5 33.9c-1.1 0-2 0.9-2 2v7.7h-7.7c-1.1 0-2 0.9-2 2s0.9 2 2 2h9.6c1.1 0 2-0.9 2-2v-9.6C47.5 34.8 46.6 33.9 45.5 33.9z" fill="#ffffff" data-fill-palette-color="accent"></path><path d="M12.1 43.6H4.4v-7.7c0-1.1-0.9-2-2-2s-2 0.9-2 2v9.6c0 1.1 0.9 2 2 2h9.6c1.1 0 2-0.9 2-2S13.2 43.6 12.1 43.6z" fill="#ffffff" data-fill-palette-color="accent"></path><path d="M2.5 14.1c1.1 0 2-0.9 2-2V4.4h7.7c1.1 0 2-0.9 2-2s-0.9-2-2-2H2.5c-1.1 0-2 0.9-2 2v9.6C0.5 13.2 1.4 14.1 2.5 14.1z" fill="#ffffff" data-fill-palette-color="accent"></path><path d="M45.5 0.5h-9.6c-1.1 0-2 0.9-2 2s0.9 2 2 2h7.7v7.7c0 1.1 0.9 2 2 2s2-0.9 2-2V2.5C47.5 1.4 46.6 0.5 45.5 0.5z" fill="#ffffff" data-fill-palette-color="accent"></path><path d="M24 19.9c-2.3 0-4.1 1.8-4.1 4.1s1.8 4.1 4.1 4.1c2.3 0 4.1-1.8 4.1-4.1S26.3 19.9 24 19.9z" fill="#ffffff" data-fill-palette-color="accent"></path><path d="M45.2 24c0-0.5-0.2-1.1-0.6-1.4-5.5-5.1-12.8-8-20.6-8-7.8 0-15.1 2.8-20.6 8C3 22.9 2.8 23.5 2.8 24c0 0.5 0.2 1.1 0.6 1.4 5.5 5.1 12.8 8 20.6 8 7.8 0 15.1-2.8 20.6-8C45 25.1 45.2 24.5 45.2 24zM24 32c-4.4 0-8-3.6-8-8 0-4.4 3.6-8 8-8 4.4 0 8 3.6 8 8C32 28.4 28.4 32 24 32z" fill="#ffffff" data-fill-palette-color="accent"></path></g></svg></g></svg></g></svg></g><defs></defs></svg><rect width="395.52" height="126.91746337980403" fill="none" stroke="none" visibility="hidden"></rect></g></svg></g></svg>