<svg xmlns="http://www.w3.org/2000/svg" version="1.1" xmlns:xlink="http://www.w3.org/1999/xlink" xmlns:svgjs="http://svgjs.dev/svgjs" width="2000" height="1247" viewBox="0 0 2000 1247"><g transform="matrix(1,0,0,1,-1.2121212121212466,0.504858299595071)"><svg viewBox="0 0 396 247" data-background-color="#b19dd0" preserveAspectRatio="xMidYMid meet" height="1247" width="2000" xmlns="http://www.w3.org/2000/svg" xmlns:xlink="http://www.w3.org/1999/xlink"><g id="tight-bounds" transform="matrix(1,0,0,1,0.2400000000000091,-0.09999999999999432)"><svg viewBox="0 0 395.52 247.2" height="247.2" width="395.52"><g><svg></svg></g><g><svg viewBox="0 0 395.52 247.2" height="247.2" width="395.52"><mask id="e4993a63-3381-4c43-a22b-91a9790d9264"><rect width="395.52" height="247.2" fill="white"></rect><g transform="matrix(1,0,0,1,0,95.57406743769343)" id="clone"><svg viewBox="0 0 395.52 56.05186512461313" height="56.05186512461313" width="395.52"><g><svg viewBox="0 0 395.52 56.05186512461313" height="56.05186512461313" width="395.52"><g><svg viewBox="0 0 395.52 56.05186512461313" height="56.05186512461313" width="395.52"><g><svg viewBox="0 0 395.52 56.05186512461313" height="56.05186512461313" width="395.52"><g id="SvgjsG1086"><svg viewBox="0 0 395.52 56.05186512461313" height="56.05186512461313" width="395.52" id="SvgjsSvg1085"><g><svg viewBox="0 0 395.52 56.05186512461313" height="56.05186512461313" width="395.52"><g transform="matrix(1,0,0,1,0,0)"><svg width="395.52" viewBox="-2.349999964237213 -41.150001525878906 307.9100036621094 44.5" height="56.05186512461313" data-palette-color="#7a26c1"><path d="M11.95 0L11.95 0Q11.3 0 10.8-0.33 10.3-0.65 10.3-1.3L10.3-1.3 10.3-33.45 1.9-33.45Q1.3-33.45 0.98-33.93 0.65-34.4 0.65-35L0.65-35Q0.65-35.6 0.98-36.08 1.3-36.55 1.9-36.55L1.9-36.55 21.95-36.55Q22.6-36.55 22.9-36.1 23.2-35.65 23.2-35.05L23.2-35.05Q23.2-34.45 22.9-33.95 22.6-33.45 21.95-33.45L21.95-33.45 13.6-33.45 13.6-1.3Q13.6-0.65 13.08-0.33 12.55 0 11.95 0ZM32.4 0.35L32.4 0.35Q29.25 0.35 26.82-0.85 24.4-2.05 23.02-4.17 21.65-6.3 21.65-9.15L21.65-9.15 21.65-14.75Q21.65-17.25 22.95-19.35 24.25-21.45 26.42-22.7 28.6-23.95 31.2-23.95L31.2-23.95Q33.7-23.95 35.82-22.78 37.95-21.6 39.25-19.55 40.55-17.5 40.55-14.85L40.55-14.85Q40.55-12.9 39.9-12.08 39.25-11.25 38.27-11.05 37.3-10.85 36.2-10.85L36.2-10.85 24.9-10.85 24.9-9Q24.9-6 27.05-4.25 29.2-2.5 32.5-2.5L32.5-2.5Q34.5-2.5 35.6-3 36.7-3.5 37.32-4 37.95-4.5 38.5-4.5L38.5-4.5Q38.9-4.5 39.22-4.23 39.55-3.95 39.72-3.6 39.9-3.25 39.9-2.95L39.9-2.95Q39.9-2.4 39-1.6 38.1-0.8 36.4-0.23 34.7 0.35 32.4 0.35ZM24.9-15.15L24.9-13.25 34.9-13.25Q36.4-13.25 36.9-13.58 37.4-13.9 37.4-14.95L37.4-14.95Q37.4-16.55 36.62-18 35.85-19.45 34.42-20.35 33-21.25 31.15-21.25L31.15-21.25Q29.45-21.25 28.02-20.43 26.6-19.6 25.75-18.23 24.9-16.85 24.9-15.15L24.9-15.15ZM54.3 0.35L54.3 0.35Q51 0.35 48.84-0.9 46.7-2.15 45.65-4.3 44.59-6.45 44.59-9.15L44.59-9.15 44.59-14.5Q44.59-17.15 45.62-19.3 46.65-21.45 48.82-22.7 51-23.95 54.3-23.95L54.3-23.95Q56.4-23.95 57.97-23.43 59.55-22.9 60.42-22.15 61.3-21.4 61.3-20.7L61.3-20.7Q61.3-20.4 61.12-20.03 60.95-19.65 60.62-19.38 60.3-19.1 59.9-19.1L59.9-19.1Q59.45-19.1 58.87-19.58 58.3-20.05 57.3-20.5 56.3-20.95 54.45-20.95L54.45-20.95Q51.2-20.95 49.52-19.23 47.84-17.5 47.84-14.5L47.84-14.5 47.84-9.15Q47.84-6.1 49.52-4.38 51.2-2.65 54.5-2.65L54.5-2.65Q56.4-2.65 57.45-3.13 58.5-3.6 59.07-4.08 59.65-4.55 60.15-4.55L60.15-4.55Q60.59-4.55 60.92-4.3 61.25-4.05 61.42-3.7 61.59-3.35 61.59-2.95L61.59-2.95Q61.59-2.3 60.7-1.53 59.8-0.75 58.17-0.2 56.55 0.35 54.3 0.35ZM67.64 0L67.64 0Q66.99 0 66.52-0.4 66.04-0.8 66.04-1.3L66.04-1.3 66.04-36.95Q66.04-37.5 66.52-37.83 66.99-38.15 67.64-38.15L67.64-38.15Q68.34-38.15 68.82-37.83 69.29-37.5 69.29-36.95L69.29-36.95 69.29-20.15Q70.14-21.6 71.79-22.78 73.44-23.95 75.89-23.95L75.89-23.95Q78.29-23.95 80.32-22.68 82.34-21.4 83.54-19.3 84.74-17.2 84.74-14.6L84.74-14.6 84.74-1.3Q84.74-0.65 84.24-0.33 83.74 0 83.09 0L83.09 0Q82.54 0 82.02-0.33 81.49-0.65 81.49-1.3L81.49-1.3 81.49-14.6Q81.49-16.2 80.64-17.65 79.79-19.1 78.39-20.03 76.99-20.95 75.29-20.95L75.29-20.95Q73.79-20.95 72.42-20.18 71.04-19.4 70.17-18 69.29-16.6 69.29-14.6L69.29-14.6 69.29-1.3Q69.29-0.8 68.82-0.4 68.34 0 67.64 0ZM111.09 0.3L111.09 0.3Q110.44 0.3 109.86 0 109.29-0.3 109.14-0.9L109.14-0.9 98.64-34.8Q98.59-34.95 98.59-35.15L98.59-35.15Q98.59-35.6 98.89-35.9 99.19-36.2 99.64-36.38 100.09-36.55 100.54-36.55L100.54-36.55Q100.99-36.55 101.34-36.35 101.69-36.15 101.84-35.7L101.84-35.7 111.09-5 120.29-35.7Q120.44-36.15 120.76-36.35 121.09-36.55 121.54-36.55L121.54-36.55Q121.99-36.55 122.44-36.35 122.89-36.15 123.21-35.85 123.54-35.55 123.54-35.1L123.54-35.1Q123.54-35.05 123.51-34.98 123.49-34.9 123.44-34.8L123.44-34.8 113.09-0.9Q112.89-0.3 112.31 0 111.74 0.3 111.09 0.3ZM129.19 0L129.19 0Q128.54 0 128.06-0.4 127.59-0.8 127.59-1.3L127.59-1.3 127.59-22.45Q127.59-23 128.06-23.33 128.54-23.65 129.19-23.65L129.19-23.65Q129.89-23.65 130.36-23.33 130.84-23 130.84-22.45L130.84-22.45 130.84-1.3Q130.84-0.8 130.36-0.4 129.89 0 129.19 0ZM129.19-30.65L129.19-30.65Q128.29-30.65 127.64-31.28 126.99-31.9 126.99-32.75L126.99-32.75Q126.99-33.6 127.64-34.2 128.29-34.8 129.19-34.8L129.19-34.8Q130.14-34.8 130.76-34.2 131.39-33.6 131.39-32.75L131.39-32.75Q131.39-31.9 130.76-31.28 130.14-30.65 129.19-30.65ZM143.48 0.35L143.48 0.35Q141.13 0.35 139.38-0.25 137.63-0.85 136.63-1.68 135.63-2.5 135.63-3.25L135.63-3.25Q135.63-3.6 135.78-3.93 135.93-4.25 136.21-4.5 136.48-4.75 136.78-4.75L136.78-4.75Q137.33-4.75 138.01-4.17 138.68-3.6 139.91-3 141.13-2.4 143.38-2.4L143.38-2.4Q146.23-2.4 147.38-3.48 148.53-4.55 148.53-5.95L148.53-5.95Q148.53-7.6 147.66-8.53 146.78-9.45 145.36-9.98 143.93-10.5 142.36-10.93 140.78-11.35 139.36-12.03 137.93-12.7 137.06-13.9 136.18-15.1 136.18-17.15L136.18-17.15Q136.18-18.75 136.98-20.33 137.78-21.9 139.51-22.93 141.23-23.95 144.08-23.95L144.08-23.95Q145.73-23.95 147.28-23.6 148.83-23.25 149.81-22.68 150.78-22.1 150.78-21.5L150.78-21.5Q150.78-21.25 150.61-20.85 150.43-20.45 150.13-20.13 149.83-19.8 149.43-19.8L149.43-19.8Q149.03-19.8 148.36-20.18 147.68-20.55 146.63-20.88 145.58-21.2 144.13-21.2L144.13-21.2Q142.33-21.2 141.23-20.55 140.13-19.9 139.63-19.03 139.13-18.15 139.13-17.3L139.13-17.3Q139.13-15.85 140.03-15.1 140.93-14.35 142.36-13.88 143.78-13.4 145.36-12.98 146.93-12.55 148.36-11.8 149.78-11.05 150.66-9.7 151.53-8.35 151.53-6.1L151.53-6.1Q151.53-3.15 149.43-1.4 147.33 0.35 143.48 0.35ZM157.98 0L157.98 0Q157.33 0 156.85-0.4 156.38-0.8 156.38-1.3L156.38-1.3 156.38-22.45Q156.38-23 156.85-23.33 157.33-23.65 157.98-23.65L157.98-23.65Q158.68-23.65 159.16-23.33 159.63-23 159.63-22.45L159.63-22.45 159.63-1.3Q159.63-0.8 159.16-0.4 158.68 0 157.98 0ZM157.98-30.65L157.98-30.65Q157.08-30.65 156.43-31.28 155.78-31.9 155.78-32.75L155.78-32.75Q155.78-33.6 156.43-34.2 157.08-34.8 157.98-34.8L157.98-34.8Q158.93-34.8 159.56-34.2 160.18-33.6 160.18-32.75L160.18-32.75Q160.18-31.9 159.56-31.28 158.93-30.65 157.98-30.65ZM174.43 0.35L174.43 0.35Q171.88 0.35 169.73-0.98 167.58-2.3 166.25-4.48 164.93-6.65 164.93-9.15L164.93-9.15 164.93-14.6Q164.93-17.1 166.23-19.23 167.53-21.35 169.68-22.65 171.83-23.95 174.43-23.95L174.43-23.95Q176.98-23.95 179.15-22.68 181.33-21.4 182.63-19.3 183.93-17.2 183.93-14.6L183.93-14.6 183.93-9.15Q183.93-6.7 182.63-4.5 181.33-2.3 179.15-0.98 176.98 0.35 174.43 0.35ZM174.43-2.65L174.43-2.65Q176.18-2.65 177.58-3.58 178.98-4.5 179.83-6 180.68-7.5 180.68-9.15L180.68-9.15 180.68-14.6Q180.68-16.2 179.85-17.65 179.03-19.1 177.6-20.03 176.18-20.95 174.43-20.95L174.43-20.95Q172.68-20.95 171.28-20.03 169.88-19.1 169.03-17.65 168.18-16.2 168.18-14.6L168.18-14.6 168.18-9.15Q168.18-7.5 169.03-6 169.88-4.5 171.3-3.58 172.73-2.65 174.43-2.65ZM190.88 0L190.88 0Q190.23 0 189.75-0.4 189.28-0.8 189.28-1.3L189.28-1.3 189.28-22.45Q189.28-23 189.75-23.33 190.23-23.65 190.88-23.65L190.88-23.65Q191.53-23.65 191.98-23.33 192.43-23 192.43-22.45L192.43-22.45 192.43-20.15Q193.23-21.6 194.93-22.78 196.63-23.95 199.13-23.95L199.13-23.95Q201.53-23.95 203.55-22.68 205.58-21.4 206.78-19.3 207.98-17.2 207.98-14.6L207.98-14.6 207.98-1.3Q207.98-0.65 207.48-0.33 206.98 0 206.33 0L206.33 0Q205.78 0 205.25-0.33 204.73-0.65 204.73-1.3L204.73-1.3 204.73-14.6Q204.73-16.2 203.88-17.65 203.03-19.1 201.63-20.03 200.23-20.95 198.53-20.95L198.53-20.95Q197.03-20.95 195.65-20.18 194.28-19.4 193.4-18 192.53-16.6 192.53-14.6L192.53-14.6 192.53-1.3Q192.53-0.8 192.05-0.4 191.58 0 190.88 0ZM233.77 0.3L233.77 0.3Q233.12 0.3 232.57 0 232.02-0.3 231.82-0.9L231.82-0.9 221.97-34.8Q221.87-35 221.87-35.2L221.87-35.2Q221.87-35.6 222.17-35.93 222.47-36.25 222.92-36.4 223.37-36.55 223.77-36.55L223.77-36.55Q224.22-36.55 224.62-36.35 225.02-36.15 225.12-35.7L225.12-35.7 233.77-5 238.72-23.65Q238.92-24.3 239.42-24.55 239.92-24.8 240.52-24.8L240.52-24.8Q241.12-24.8 241.57-24.55 242.02-24.3 242.17-23.65L242.17-23.65 247.22-5 255.82-35.7Q255.97-36.15 256.35-36.35 256.72-36.55 257.17-36.55L257.17-36.55Q257.67-36.55 258.07-36.4 258.47-36.25 258.77-35.93 259.07-35.6 259.07-35.2L259.07-35.2Q259.07-35 259.02-34.8L259.02-34.8 249.22-0.9Q249.02-0.3 248.47 0 247.92 0.3 247.22 0.3L247.22 0.3Q246.57 0.3 246 0 245.42-0.3 245.27-0.9L245.27-0.9 240.52-18.55 235.77-0.9Q235.62-0.3 235.05 0 234.47 0.3 233.77 0.3ZM270.67 0.35L270.67 0.35Q267.52 0.35 265.09-0.85 262.67-2.05 261.29-4.17 259.92-6.3 259.92-9.15L259.92-9.15 259.92-14.75Q259.92-17.25 261.22-19.35 262.52-21.45 264.69-22.7 266.87-23.95 269.47-23.95L269.47-23.95Q271.97-23.95 274.09-22.78 276.22-21.6 277.52-19.55 278.82-17.5 278.82-14.85L278.82-14.85Q278.82-12.9 278.17-12.08 277.52-11.25 276.54-11.05 275.57-10.85 274.47-10.85L274.47-10.85 263.17-10.85 263.17-9Q263.17-6 265.32-4.25 267.47-2.5 270.77-2.5L270.77-2.5Q272.77-2.5 273.87-3 274.97-3.5 275.59-4 276.22-4.5 276.77-4.5L276.77-4.5Q277.17-4.5 277.49-4.23 277.82-3.95 277.99-3.6 278.17-3.25 278.17-2.95L278.17-2.95Q278.17-2.4 277.27-1.6 276.37-0.8 274.67-0.23 272.97 0.35 270.67 0.35ZM263.17-15.15L263.17-13.25 273.17-13.25Q274.67-13.25 275.17-13.58 275.67-13.9 275.67-14.95L275.67-14.95Q275.67-16.55 274.89-18 274.12-19.45 272.69-20.35 271.27-21.25 269.42-21.25L269.42-21.25Q267.72-21.25 266.29-20.43 264.87-19.6 264.02-18.23 263.17-16.85 263.17-15.15L263.17-15.15ZM293.71 0.35L293.71 0.35Q291.37 0.35 289.51-0.8 287.67-1.95 286.87-3.5L286.87-3.5 286.87-1.3Q286.87-0.8 286.42-0.4 285.96 0 285.31 0L285.31 0Q284.67 0 284.19-0.4 283.71-0.8 283.71-1.3L283.71-1.3 283.71-36.95Q283.71-37.5 284.19-37.83 284.67-38.15 285.31-38.15L285.31-38.15Q286.01-38.15 286.49-37.83 286.96-37.5 286.96-36.95L286.96-36.95 286.96-20.15Q287.81-21.6 289.49-22.78 291.17-23.95 293.62-23.95L293.62-23.95Q296.06-23.95 298.09-22.68 300.12-21.4 301.34-19.3 302.56-17.2 302.56-14.6L302.56-14.6 302.56-9.15Q302.56-6.7 301.34-4.5 300.12-2.3 298.12-0.98 296.12 0.35 293.71 0.35ZM293.12-2.65L293.12-2.65Q294.81-2.65 296.21-3.58 297.62-4.5 298.46-6 299.31-7.5 299.31-9.15L299.31-9.15 299.31-14.6Q299.31-16.2 298.46-17.65 297.62-19.1 296.21-20.03 294.81-20.95 293.06-20.95L293.06-20.95Q291.56-20.95 290.17-20.18 288.76-19.4 287.87-18 286.96-16.6 286.96-14.6L286.96-14.6 286.96-7.6Q286.96-6.85 287.79-5.68 288.62-4.5 290.01-3.58 291.42-2.65 293.12-2.65Z" opacity="1" transform="matrix(1,0,0,1,0,0)" fill="black" class="wordmark-text-0" id="SvgjsPath1084" stroke-width="5" stroke="black" stroke-linejoin="round"></path></svg></g></svg></g></svg></g></svg></g><g></g></svg></g></svg></g></svg></g></mask><g mask="url(#e4993a63-3381-4c43-a22b-91a9790d9264)"><g><path xmlns="http://www.w3.org/2000/svg" d="M51.388 204.422v0c-1.932 0-3.642-0.491-5.128-1.471-1.486-0.951-2.23-2.393-2.229-4.326v0-143.361h-37.457c-1.784 0-3.151-0.713-4.102-2.141-0.981-1.397-1.472-2.988-1.472-4.771v0c0-1.784 0.491-3.389 1.472-4.816 0.951-1.397 2.319-2.096 4.102-2.096v0h89.406c1.932 0 3.344 0.669 4.236 2.007 0.892 1.338 1.338 2.898 1.338 4.682v0c0 1.784-0.446 3.419-1.338 4.905-0.892 1.486-2.304 2.23-4.236 2.23v0h-37.234v143.361c0 1.932-0.773 3.374-2.319 4.326-1.576 0.981-3.255 1.472-5.039 1.471zM164.428 205.76v0c-1.932 0-3.746-0.446-5.44-1.338-1.724-0.892-2.809-2.23-3.255-4.013v0l-46.822-151.165c-0.149-0.446-0.223-0.966-0.223-1.561v0c0-1.338 0.446-2.453 1.338-3.344 0.892-0.892 2.007-1.605 3.345-2.141 1.338-0.505 2.675-0.758 4.013-0.758v0c1.338 0 2.527 0.297 3.567 0.892 1.04 0.595 1.784 1.561 2.23 2.898v0l41.247 136.896 41.024-136.896c0.446-1.338 1.159-2.304 2.14-2.898 0.951-0.595 2.096-0.892 3.434-0.892v0c1.338 0 2.675 0.297 4.013 0.892 1.338 0.595 2.497 1.338 3.478 2.23 0.951 0.892 1.427 2.007 1.427 3.344v0c0 0.149-0.03 0.327-0.089 0.535-0.089 0.238-0.208 0.505-0.357 0.803v0l-46.152 151.165c-0.595 1.784-1.739 3.121-3.433 4.013-1.724 0.892-3.552 1.338-5.485 1.338zM281.704 205.76v0c-1.932 0-3.716-0.446-5.351-1.338-1.635-0.892-2.75-2.23-3.345-4.013v0l-43.922-151.165c-0.297-0.595-0.446-1.189-0.446-1.784v0c0-1.189 0.446-2.274 1.337-3.255 0.892-0.951 2.007-1.65 3.345-2.096 1.338-0.446 2.601-0.669 3.79-0.669v0c1.338 0 2.601 0.297 3.79 0.892 1.189 0.595 1.932 1.561 2.23 2.898v0l38.572 136.896 22.072-83.163c0.595-1.932 1.635-3.27 3.122-4.013 1.486-0.743 3.121-1.115 4.905-1.115v0c1.784 0 3.344 0.372 4.682 1.115 1.338 0.743 2.23 2.081 2.675 4.013v0l22.519 83.163 38.349-136.896c0.446-1.338 1.234-2.304 2.363-2.898 1.1-0.595 2.319-0.892 3.657-0.892v0c1.486 0 2.824 0.223 4.013 0.669 1.189 0.446 2.23 1.145 3.121 2.096 0.892 0.981 1.338 2.066 1.338 3.255v0c0 0.595-0.074 1.189-0.223 1.784v0l-43.7 151.165c-0.595 1.784-1.709 3.121-3.344 4.013-1.635 0.892-3.493 1.338-5.574 1.338v0c-1.932 0-3.746-0.446-5.44-1.338-1.724-0.892-2.809-2.23-3.255-4.013v0l-21.181-78.704-21.181 78.704c-0.446 1.784-1.516 3.121-3.211 4.013-1.724 0.892-3.627 1.338-5.707 1.338z" fill="#7a26c1" fill-rule="nonzero" stroke="none" stroke-width="1" stroke-linecap="butt" stroke-linejoin="miter" stroke-miterlimit="10" stroke-dasharray="" stroke-dashoffset="0" font-family="none" font-weight="none" font-size="none" text-anchor="none" style="mix-blend-mode: normal" data-fill-palette-color="tertiary"></path></g></g><g transform="matrix(1,0,0,1,0,95.57406743769343)"><svg viewBox="0 0 395.52 56.05186512461313" height="56.05186512461313" width="395.52"><g><svg viewBox="0 0 395.52 56.05186512461313" height="56.05186512461313" width="395.52"><g><svg viewBox="0 0 395.52 56.05186512461313" height="56.05186512461313" width="395.52"><g><svg viewBox="0 0 395.52 56.05186512461313" height="56.05186512461313" width="395.52"><g id="textblocktransform"><svg viewBox="0 0 395.52 56.05186512461313" height="56.05186512461313" width="395.52" id="textblock"><g><svg viewBox="0 0 395.52 56.05186512461313" height="56.05186512461313" width="395.52"><g transform="matrix(1,0,0,1,0,0)"><svg width="395.52" viewBox="-2.349999964237213 -41.150001525878906 307.9100036621094 44.5" height="56.05186512461313" data-palette-color="#7a26c1"><path d="M11.95 0L11.95 0Q11.3 0 10.8-0.33 10.3-0.65 10.3-1.3L10.3-1.3 10.3-33.45 1.9-33.45Q1.3-33.45 0.98-33.93 0.65-34.4 0.65-35L0.65-35Q0.65-35.6 0.98-36.08 1.3-36.55 1.9-36.55L1.9-36.55 21.95-36.55Q22.6-36.55 22.9-36.1 23.2-35.65 23.2-35.05L23.2-35.05Q23.2-34.45 22.9-33.95 22.6-33.45 21.95-33.45L21.95-33.45 13.6-33.45 13.6-1.3Q13.6-0.65 13.08-0.33 12.55 0 11.95 0ZM32.4 0.35L32.4 0.35Q29.25 0.35 26.82-0.85 24.4-2.05 23.02-4.17 21.65-6.3 21.65-9.15L21.65-9.15 21.65-14.75Q21.65-17.25 22.95-19.35 24.25-21.45 26.42-22.7 28.6-23.95 31.2-23.95L31.2-23.95Q33.7-23.95 35.82-22.78 37.95-21.6 39.25-19.55 40.55-17.5 40.55-14.85L40.55-14.85Q40.55-12.9 39.9-12.08 39.25-11.25 38.27-11.05 37.3-10.85 36.2-10.85L36.2-10.85 24.9-10.85 24.9-9Q24.9-6 27.05-4.25 29.2-2.5 32.5-2.5L32.5-2.5Q34.5-2.5 35.6-3 36.7-3.5 37.32-4 37.95-4.5 38.5-4.5L38.5-4.5Q38.9-4.5 39.22-4.23 39.55-3.95 39.72-3.6 39.9-3.25 39.9-2.95L39.9-2.95Q39.9-2.4 39-1.6 38.1-0.8 36.4-0.23 34.7 0.35 32.4 0.35ZM24.9-15.15L24.9-13.25 34.9-13.25Q36.4-13.25 36.9-13.58 37.4-13.9 37.4-14.95L37.4-14.95Q37.4-16.55 36.62-18 35.85-19.45 34.42-20.35 33-21.25 31.15-21.25L31.15-21.25Q29.45-21.25 28.02-20.43 26.6-19.6 25.75-18.23 24.9-16.85 24.9-15.15L24.9-15.15ZM54.3 0.35L54.3 0.35Q51 0.35 48.84-0.9 46.7-2.15 45.65-4.3 44.59-6.45 44.59-9.15L44.59-9.15 44.59-14.5Q44.59-17.15 45.62-19.3 46.65-21.45 48.82-22.7 51-23.95 54.3-23.95L54.3-23.95Q56.4-23.95 57.97-23.43 59.55-22.9 60.42-22.15 61.3-21.4 61.3-20.7L61.3-20.7Q61.3-20.4 61.12-20.03 60.95-19.65 60.62-19.38 60.3-19.1 59.9-19.1L59.9-19.1Q59.45-19.1 58.87-19.58 58.3-20.05 57.3-20.5 56.3-20.95 54.45-20.95L54.45-20.95Q51.2-20.95 49.52-19.23 47.84-17.5 47.84-14.5L47.84-14.5 47.84-9.15Q47.84-6.1 49.52-4.38 51.2-2.65 54.5-2.65L54.5-2.65Q56.4-2.65 57.45-3.13 58.5-3.6 59.07-4.08 59.65-4.55 60.15-4.55L60.15-4.55Q60.59-4.55 60.92-4.3 61.25-4.05 61.42-3.7 61.59-3.35 61.59-2.95L61.59-2.95Q61.59-2.3 60.7-1.53 59.8-0.75 58.17-0.2 56.55 0.35 54.3 0.35ZM67.64 0L67.64 0Q66.99 0 66.52-0.4 66.04-0.8 66.04-1.3L66.04-1.3 66.04-36.95Q66.04-37.5 66.52-37.83 66.99-38.15 67.64-38.15L67.64-38.15Q68.34-38.15 68.82-37.83 69.29-37.5 69.29-36.95L69.29-36.95 69.29-20.15Q70.14-21.6 71.79-22.78 73.44-23.95 75.89-23.95L75.89-23.95Q78.29-23.95 80.32-22.68 82.34-21.4 83.54-19.3 84.74-17.2 84.74-14.6L84.74-14.6 84.74-1.3Q84.74-0.65 84.24-0.33 83.74 0 83.09 0L83.09 0Q82.54 0 82.02-0.33 81.49-0.65 81.49-1.3L81.49-1.3 81.49-14.6Q81.49-16.2 80.64-17.65 79.79-19.1 78.39-20.03 76.99-20.95 75.29-20.95L75.29-20.95Q73.79-20.95 72.42-20.18 71.04-19.4 70.17-18 69.29-16.6 69.29-14.6L69.29-14.6 69.29-1.3Q69.29-0.8 68.82-0.4 68.34 0 67.64 0ZM111.09 0.3L111.09 0.3Q110.44 0.3 109.86 0 109.29-0.3 109.14-0.9L109.14-0.9 98.64-34.8Q98.59-34.95 98.59-35.15L98.59-35.15Q98.59-35.6 98.89-35.9 99.19-36.2 99.64-36.38 100.09-36.55 100.54-36.55L100.54-36.55Q100.99-36.55 101.34-36.35 101.69-36.15 101.84-35.7L101.84-35.7 111.09-5 120.29-35.7Q120.44-36.15 120.76-36.35 121.09-36.55 121.54-36.55L121.54-36.55Q121.99-36.55 122.44-36.35 122.89-36.15 123.21-35.85 123.54-35.55 123.54-35.1L123.54-35.1Q123.54-35.05 123.51-34.98 123.49-34.9 123.44-34.8L123.44-34.8 113.09-0.9Q112.89-0.3 112.31 0 111.74 0.3 111.09 0.3ZM129.19 0L129.19 0Q128.54 0 128.06-0.4 127.59-0.8 127.59-1.3L127.59-1.3 127.59-22.45Q127.59-23 128.06-23.33 128.54-23.65 129.19-23.65L129.19-23.65Q129.89-23.65 130.36-23.33 130.84-23 130.84-22.45L130.84-22.45 130.84-1.3Q130.84-0.8 130.36-0.4 129.89 0 129.19 0ZM129.19-30.65L129.19-30.65Q128.29-30.65 127.64-31.28 126.99-31.9 126.99-32.75L126.99-32.75Q126.99-33.6 127.64-34.2 128.29-34.8 129.19-34.8L129.19-34.8Q130.14-34.8 130.76-34.2 131.39-33.6 131.39-32.75L131.39-32.75Q131.39-31.9 130.76-31.28 130.14-30.65 129.19-30.65ZM143.48 0.35L143.48 0.35Q141.13 0.35 139.38-0.25 137.63-0.85 136.63-1.68 135.63-2.5 135.63-3.25L135.63-3.25Q135.63-3.6 135.78-3.93 135.93-4.25 136.21-4.5 136.48-4.75 136.78-4.75L136.78-4.75Q137.33-4.75 138.01-4.17 138.68-3.6 139.91-3 141.13-2.4 143.38-2.4L143.38-2.4Q146.23-2.4 147.38-3.48 148.53-4.55 148.53-5.95L148.53-5.95Q148.53-7.6 147.66-8.53 146.78-9.45 145.36-9.98 143.93-10.5 142.36-10.93 140.78-11.35 139.36-12.03 137.93-12.7 137.06-13.9 136.18-15.1 136.18-17.15L136.18-17.15Q136.18-18.75 136.98-20.33 137.78-21.9 139.51-22.93 141.23-23.95 144.08-23.95L144.08-23.95Q145.73-23.95 147.28-23.6 148.83-23.25 149.81-22.68 150.78-22.1 150.78-21.5L150.78-21.5Q150.78-21.25 150.61-20.85 150.43-20.45 150.13-20.13 149.83-19.8 149.43-19.8L149.43-19.8Q149.03-19.8 148.36-20.18 147.68-20.55 146.63-20.88 145.58-21.2 144.13-21.2L144.13-21.2Q142.33-21.2 141.23-20.55 140.13-19.9 139.63-19.03 139.13-18.15 139.13-17.3L139.13-17.3Q139.13-15.85 140.03-15.1 140.93-14.35 142.36-13.88 143.78-13.4 145.36-12.98 146.93-12.55 148.36-11.8 149.78-11.05 150.66-9.7 151.53-8.35 151.53-6.1L151.53-6.1Q151.53-3.15 149.43-1.4 147.33 0.35 143.48 0.35ZM157.98 0L157.98 0Q157.33 0 156.85-0.4 156.38-0.8 156.38-1.3L156.38-1.3 156.38-22.45Q156.38-23 156.85-23.33 157.33-23.65 157.98-23.65L157.98-23.65Q158.68-23.65 159.16-23.33 159.63-23 159.63-22.45L159.63-22.45 159.63-1.3Q159.63-0.8 159.16-0.4 158.68 0 157.98 0ZM157.98-30.65L157.98-30.65Q157.08-30.65 156.43-31.28 155.78-31.9 155.78-32.75L155.78-32.75Q155.78-33.6 156.43-34.2 157.08-34.8 157.98-34.8L157.98-34.8Q158.93-34.8 159.56-34.2 160.18-33.6 160.18-32.75L160.18-32.75Q160.18-31.9 159.56-31.28 158.93-30.65 157.98-30.65ZM174.43 0.35L174.43 0.35Q171.88 0.35 169.73-0.98 167.58-2.3 166.25-4.48 164.93-6.65 164.93-9.15L164.93-9.15 164.93-14.6Q164.93-17.1 166.23-19.23 167.53-21.35 169.68-22.65 171.83-23.95 174.43-23.95L174.43-23.95Q176.98-23.95 179.15-22.68 181.33-21.4 182.63-19.3 183.93-17.2 183.93-14.6L183.93-14.6 183.93-9.15Q183.93-6.7 182.63-4.5 181.33-2.3 179.15-0.98 176.98 0.35 174.43 0.35ZM174.43-2.65L174.43-2.65Q176.18-2.65 177.58-3.58 178.98-4.5 179.83-6 180.68-7.5 180.68-9.15L180.68-9.15 180.68-14.6Q180.68-16.2 179.85-17.65 179.03-19.1 177.6-20.03 176.18-20.95 174.43-20.95L174.43-20.95Q172.68-20.95 171.28-20.03 169.88-19.1 169.03-17.65 168.18-16.2 168.18-14.6L168.18-14.6 168.18-9.15Q168.18-7.5 169.03-6 169.88-4.5 171.3-3.58 172.73-2.65 174.43-2.65ZM190.88 0L190.88 0Q190.23 0 189.75-0.4 189.28-0.8 189.28-1.3L189.28-1.3 189.28-22.45Q189.28-23 189.75-23.33 190.23-23.65 190.88-23.65L190.88-23.65Q191.53-23.65 191.98-23.33 192.43-23 192.43-22.45L192.43-22.45 192.43-20.15Q193.23-21.6 194.93-22.78 196.63-23.95 199.13-23.95L199.13-23.95Q201.53-23.95 203.55-22.68 205.58-21.4 206.78-19.3 207.98-17.2 207.98-14.6L207.98-14.6 207.98-1.3Q207.98-0.65 207.48-0.33 206.98 0 206.33 0L206.33 0Q205.78 0 205.25-0.33 204.73-0.65 204.73-1.3L204.73-1.3 204.73-14.6Q204.73-16.2 203.88-17.65 203.03-19.1 201.63-20.03 200.23-20.95 198.53-20.95L198.53-20.95Q197.03-20.95 195.65-20.18 194.28-19.4 193.4-18 192.53-16.6 192.53-14.6L192.53-14.6 192.53-1.3Q192.53-0.8 192.05-0.4 191.58 0 190.88 0ZM233.77 0.3L233.77 0.3Q233.12 0.3 232.57 0 232.02-0.3 231.82-0.9L231.82-0.9 221.97-34.8Q221.87-35 221.87-35.2L221.87-35.2Q221.87-35.6 222.17-35.93 222.47-36.25 222.92-36.4 223.37-36.55 223.77-36.55L223.77-36.55Q224.22-36.55 224.62-36.35 225.02-36.15 225.12-35.7L225.12-35.7 233.77-5 238.72-23.65Q238.92-24.3 239.42-24.55 239.92-24.8 240.52-24.8L240.52-24.8Q241.12-24.8 241.57-24.55 242.02-24.3 242.17-23.65L242.17-23.65 247.22-5 255.82-35.7Q255.97-36.15 256.35-36.35 256.72-36.55 257.17-36.55L257.17-36.55Q257.67-36.55 258.07-36.4 258.47-36.25 258.77-35.93 259.07-35.6 259.07-35.2L259.07-35.2Q259.07-35 259.02-34.8L259.02-34.8 249.22-0.9Q249.02-0.3 248.47 0 247.92 0.3 247.22 0.3L247.22 0.3Q246.57 0.3 246 0 245.42-0.3 245.27-0.9L245.27-0.9 240.52-18.55 235.77-0.9Q235.62-0.3 235.05 0 234.47 0.3 233.77 0.3ZM270.67 0.35L270.67 0.35Q267.52 0.35 265.09-0.85 262.67-2.05 261.29-4.17 259.92-6.3 259.92-9.15L259.92-9.15 259.92-14.75Q259.92-17.25 261.22-19.35 262.52-21.45 264.69-22.7 266.87-23.95 269.47-23.95L269.47-23.95Q271.97-23.95 274.09-22.78 276.22-21.6 277.52-19.55 278.82-17.5 278.82-14.85L278.82-14.85Q278.82-12.9 278.17-12.08 277.52-11.25 276.54-11.05 275.57-10.85 274.47-10.85L274.47-10.85 263.17-10.85 263.17-9Q263.17-6 265.32-4.25 267.47-2.5 270.77-2.5L270.77-2.5Q272.77-2.5 273.87-3 274.97-3.5 275.59-4 276.22-4.5 276.77-4.5L276.77-4.5Q277.17-4.5 277.49-4.23 277.82-3.95 277.99-3.6 278.17-3.25 278.17-2.95L278.17-2.95Q278.17-2.4 277.27-1.6 276.37-0.8 274.67-0.23 272.97 0.35 270.67 0.35ZM263.17-15.15L263.17-13.25 273.17-13.25Q274.67-13.25 275.17-13.58 275.67-13.9 275.67-14.95L275.67-14.95Q275.67-16.55 274.89-18 274.12-19.45 272.69-20.35 271.27-21.25 269.42-21.25L269.42-21.25Q267.72-21.25 266.29-20.43 264.87-19.6 264.02-18.23 263.17-16.85 263.17-15.15L263.17-15.15ZM293.71 0.35L293.71 0.35Q291.37 0.35 289.51-0.8 287.67-1.95 286.87-3.5L286.87-3.5 286.87-1.3Q286.87-0.8 286.42-0.4 285.96 0 285.31 0L285.31 0Q284.67 0 284.19-0.4 283.71-0.8 283.71-1.3L283.71-1.3 283.71-36.95Q283.71-37.5 284.19-37.83 284.67-38.15 285.31-38.15L285.31-38.15Q286.01-38.15 286.49-37.83 286.96-37.5 286.96-36.95L286.96-36.95 286.96-20.15Q287.81-21.6 289.49-22.78 291.17-23.95 293.62-23.95L293.62-23.95Q296.06-23.95 298.09-22.68 300.12-21.4 301.34-19.3 302.56-17.2 302.56-14.6L302.56-14.6 302.56-9.15Q302.56-6.7 301.34-4.5 300.12-2.3 298.12-0.98 296.12 0.35 293.71 0.35ZM293.12-2.65L293.12-2.65Q294.81-2.65 296.21-3.58 297.62-4.5 298.46-6 299.31-7.5 299.31-9.15L299.31-9.15 299.31-14.6Q299.31-16.2 298.46-17.65 297.62-19.1 296.21-20.03 294.81-20.95 293.06-20.95L293.06-20.95Q291.56-20.95 290.17-20.18 288.76-19.4 287.87-18 286.96-16.6 286.96-14.6L286.96-14.6 286.96-7.6Q286.96-6.85 287.79-5.68 288.62-4.5 290.01-3.58 291.42-2.65 293.12-2.65Z" opacity="1" transform="matrix(1,0,0,1,0,0)" fill="#7a26c1" class="wordmark-text-0" data-fill-palette-color="primary" id="text-0"></path></svg></g></svg></g></svg></g></svg></g><g></g></svg></g></svg></g></svg></g></svg></g><defs></defs></svg><rect width="395.52" height="247.2" fill="none" stroke="none" visibility="hidden"></rect></g></svg></g></svg>