<svg xmlns="http://www.w3.org/2000/svg" version="1.1" xmlns:xlink="http://www.w3.org/1999/xlink" xmlns:svgjs="http://svgjs.dev/svgjs" width="1000" height="623" viewBox="0 0 1000 623"><g transform="matrix(1,0,0,1,-0.6060606060606233,0.2522267206477409)"><svg viewBox="0 0 396 247" data-background-color="#ffffff" preserveAspectRatio="xMidYMid meet" height="623" width="1000" xmlns="http://www.w3.org/2000/svg" xmlns:xlink="http://www.w3.org/1999/xlink"><g id="tight-bounds" transform="matrix(1,0,0,1,0.2400000000000091,-0.09999999999999432)"><svg viewBox="0 0 395.52 247.2" height="247.2" width="395.52"><g><svg></svg></g><g><svg viewBox="0 0 395.52 247.2" height="247.2" width="395.52"><g transform="matrix(1,0,0,1,106.23108313043477,47.215199999999996)"><svg viewBox="0 0 183.05783373913044 152.7696" height="152.7696" width="183.05783373913044"><g><svg viewBox="0 0 183.05783373913044 152.7696" height="152.7696" width="183.05783373913044"><g><svg viewBox="0 0 183.05783373913044 152.7696" height="152.7696" width="183.05783373913044"><g><svg viewBox="0 0 183.05783373913044 152.7696" height="152.7696" width="183.05783373913044"><g id="textblocktransform"><svg viewBox="0 0 183.05783373913044 152.7696" height="152.7696" width="183.05783373913044" id="textblock"><g><svg viewBox="0 0 183.05783373913044 152.7696" height="152.7696" width="183.05783373913044"><g transform="matrix(1,0,0,1,0,0)"><svg width="183.05783373913044" viewBox="5 -28.75 34.45000076293945 28.75" height="152.7696" data-palette-color="#ef86c1"><path d="M5 0L5-28.75 10.7-28.75 21-19.05 21-11.5 11.3-20.85 11.3 0 5 0ZM23.25-17.2L33.15-8.1 33.15-28.75 39.45-28.75 39.45 0 33.55 0 23.25-9.9 23.25-17.2Z" opacity="1" transform="matrix(1,0,0,1,0,0)" fill="#ef86c1" class="wordmark-text-0" data-fill-palette-color="primary" id="text-0"></path></svg></g></svg></g></svg></g></svg></g></svg></g></svg></g></svg></g><g><path d="M215.129 0c30.402 0 58.24 10.976 79.768 29.183l-11.147 0c-19.26-14.022-42.974-22.294-68.621-22.295-25.647 0-49.361 8.272-68.621 22.295l-11.147 0c21.528-18.206 49.366-29.183 79.768-29.183zM338.729 123.6c0 33.38-13.232 63.67-34.738 85.91v-10.242c17.367-20.375 27.849-46.797 27.849-75.668 0-28.87-10.483-55.293-27.849-75.668v-10.242c21.505 22.24 34.738 52.53 34.738 85.91zM215.129 247.2c-30.402 0-58.24-10.976-79.768-29.183h11.147c19.26 14.022 42.974 22.294 68.621 22.295 25.647 0 49.361-8.272 68.621-22.295h11.147c-21.528 18.206-49.366 29.183-79.768 29.183z" fill="#ef86c1" stroke="transparent" data-fill-palette-color="tertiary"></path></g></svg></g><defs></defs></svg><rect width="395.52" height="247.2" fill="none" stroke="none" visibility="hidden"></rect></g></svg></g></svg>